<?xml version="1.0" encoding="UTF-8"?>
<svg id="Ebene_2" data-name="Ebene 2" xmlns="http://www.w3.org/2000/svg" viewBox="0 0 483 362.5">
  <defs>
    <style>
      .cls-1 {
        fill: #fff;
      }
    </style>
  </defs>
  <g id="Logo_weiss" data-name="Logo weiss">
    <g>
      <polygon class="cls-1" points="163.77 40 157.55 26.22 143.77 20 157.55 13.78 163.77 0 169.99 13.78 183.77 20 169.99 26.22 163.77 40"/>
      <path class="cls-1" d="M483,94.62l-79.82,15.76c-28.77-55.19-86.51-92.88-153.05-92.88-90.05,0-163.97,69-171.8,157.02L0,189.98l78.32,15.47c7.82,88.03,81.74,157.05,171.8,157.05,66.55,0,124.29-37.69,153.06-92.88l79.82,15.77V94.62ZM135.22,75.1c30.69-30.69,71.5-47.6,114.9-47.6s84.21,16.9,114.9,47.6c11.2,11.2,20.56,23.76,27.94,37.3l-304.41,60.1c3.92-36.79,20.13-70.87,46.66-97.4ZM365.03,304.9c-30.69,30.69-71.5,47.6-114.9,47.6s-84.21-16.9-114.9-47.6c-26.54-26.54-42.75-60.63-46.66-97.43l304.42,60.13c-7.38,13.54-16.74,26.1-27.94,37.3Z"/>
    </g>
  </g>
</svg>