<?xml version="1.0" encoding="UTF-8"?>
<svg id="Ebene_2" data-name="Ebene 2" xmlns="http://www.w3.org/2000/svg" viewBox="0 0 655.93 455.11">
  <defs>
    <style>
      .cls-1 {
        fill: #fff;
      }
    </style>
  </defs>
  <g id="Logo_weiss" data-name="Logo weiss">
    <g>
      <polygon class="cls-1" points="241.7 40 235.48 26.22 221.7 20 235.48 13.78 241.7 0 247.92 13.78 261.7 20 247.92 26.22 241.7 40"/>
      <path class="cls-1" d="M560.93,94.62l-79.82,15.76c-28.77-55.19-86.51-92.88-153.05-92.88-90.05,0-163.97,69-171.8,157.02l-78.32,15.46,78.32,15.47c7.82,88.03,81.74,157.05,171.8,157.05,66.55,0,124.29-37.69,153.06-92.88l79.82,15.77V94.62ZM213.15,75.1c30.69-30.69,71.5-47.6,114.9-47.6s84.21,16.9,114.9,47.6c11.2,11.2,20.56,23.76,27.94,37.3l-304.41,60.1c3.92-36.79,20.13-70.87,46.66-97.4ZM442.96,304.9c-30.69,30.69-71.5,47.6-114.9,47.6s-84.21-16.9-114.9-47.6c-26.54-26.54-42.75-60.63-46.66-97.43l304.42,60.13c-7.38,13.54-16.74,26.1-27.94,37.3Z"/>
      <g>
        <path class="cls-1" d="M51.91,434.31c0,2.97-.62,5.72-1.86,8.27-1.24,2.54-2.95,4.74-5.12,6.59-2.18,1.85-4.77,3.3-7.78,4.36-3.01,1.06-6.28,1.59-9.82,1.59H0v-25.44h12.69v14.94h14.64c1.75,0,3.36-.23,4.85-.7,1.48-.47,2.75-1.13,3.81-1.98,1.06-.85,1.89-1.88,2.5-3.08.61-1.2.92-2.53.92-4s-.31-2.75-.92-3.96-1.46-2.27-2.56-3.14c-1.1-.87-2.38-1.57-3.84-2.07-1.46-.51-3.05-.76-4.76-.76H0l8.05-10.61h19.28c3.58,0,6.87.49,9.88,1.46,3.01.98,5.6,2.35,7.78,4.12,2.17,1.77,3.87,3.88,5.09,6.34,1.22,2.46,1.83,5.16,1.83,8.08Z"/>
        <path class="cls-1" d="M77.71,455.11l7.62-10.49h14.06c1.32,0,2.47.04,3.45.12-.57-.73-1.23-1.66-1.98-2.78-.75-1.12-1.47-2.17-2.17-3.14l-7.32-10.8-19.15,27.08h-14.95l26.17-36.91c.85-1.18,1.93-2.24,3.23-3.17,1.3-.93,2.95-1.4,4.94-1.4s3.51.44,4.79,1.31c1.28.88,2.37,1.96,3.26,3.26l25.5,36.91h-47.46Z"/>
        <path class="cls-1" d="M173.61,430.59c5,0,8.8.93,11.41,2.78,2.6,1.85,3.9,4.65,3.9,8.39,0,2.07-.33,3.95-.98,5.61-.65,1.67-1.69,3.07-3.11,4.21-1.42,1.14-3.24,2.01-5.46,2.62-2.22.61-4.87.92-7.96.92h-38l8.11-10.49h30.87c1.5,0,2.6-.23,3.29-.7.69-.47,1.04-1.23,1.04-2.29s-.35-1.81-1.04-2.26c-.69-.45-1.79-.67-3.29-.67h-22.2c-2.64,0-4.92-.28-6.83-.85-1.91-.57-3.5-1.36-4.76-2.38-1.26-1.02-2.2-2.25-2.81-3.69-.61-1.44-.91-3.04-.91-4.79,0-1.91.34-3.65,1.01-5.22.67-1.56,1.71-2.9,3.11-4,1.4-1.1,3.21-1.95,5.43-2.56,2.22-.61,4.87-.92,7.96-.92h35.44l-8.11,10.61h-28.3c-1.46,0-2.55.2-3.26.61-.71.41-1.07,1.14-1.07,2.2s.36,1.8,1.07,2.23c.71.43,1.8.64,3.26.64h22.2Z"/>
        <path class="cls-1" d="M282.18,455.11h-19.09l-12.32-10.74c-2.12-1.83-3.73-3.25-4.85-4.27-1.12-1.02-2.02-1.87-2.71-2.56.04.94.08,1.9.12,2.9.04,1,.06,1.98.06,2.96v11.71h-12.69v-40.81h12.69v9.46c0,1.26-.02,2.5-.06,3.72-.04,1.22-.1,2.36-.18,3.42.81-.73,1.8-1.64,2.96-2.71,1.16-1.08,2.67-2.39,4.54-3.93l11.77-9.94h18.3l-15.62,11.71c-1.34,1.02-2.53,1.91-3.57,2.68-1.04.77-1.96,1.44-2.78,2.01-.81.57-1.55,1.08-2.23,1.53-.67.45-1.33.88-1.98,1.28,1.18.81,2.6,1.83,4.27,3.05s3.82,2.91,6.47,5.06l16.9,13.48Z"/>
        <path class="cls-1" d="M308.48,455.11l7.62-10.49h14.06c1.32,0,2.47.04,3.45.12-.57-.73-1.23-1.66-1.98-2.78-.75-1.12-1.47-2.17-2.17-3.14l-7.32-10.8-19.15,27.08h-14.95l26.17-36.91c.85-1.18,1.93-2.24,3.23-3.17,1.3-.93,2.95-1.4,4.94-1.4s3.51.44,4.79,1.31c1.28.88,2.37,1.96,3.26,3.26l25.5,36.91h-47.46Z"/>
        <path class="cls-1" d="M423.22,455.11h-16.9l-9.09-10.8h-19.4v10.8h-12.63v-20.86h35.5c1.95,0,3.6-.41,4.94-1.22,1.34-.81,2.01-1.93,2.01-3.35,0-1.59-.61-2.78-1.83-3.57-1.22-.79-2.93-1.19-5.12-1.19h-35.5l8.24-10.61h26.23c2.32,0,4.72.21,7.2.64,2.48.43,4.74,1.19,6.77,2.29,2.03,1.1,3.71,2.58,5.03,4.45,1.32,1.87,1.98,4.27,1.98,7.2,0,1.59-.24,3.09-.73,4.51-.49,1.42-1.19,2.71-2.1,3.84-.92,1.14-2.03,2.1-3.36,2.9-1.32.79-2.82,1.35-4.48,1.68.69.53,1.46,1.2,2.32,2.01.85.81,1.99,1.93,3.42,3.36l7.5,7.93Z"/>
        <path class="cls-1" d="M483.91,414.3l-8.17,10.61h-14.58v30.2h-12.63v-30.2h-19.15l8.17-10.61h46.36Z"/>
        <path class="cls-1" d="M541.25,444.62l-8.11,10.49h-39.28v-40.81h47.28l-8.17,10.61h-26.41v4.88h32.33l-7.26,9.27h-25.07v5.55h34.71Z"/>
        <path class="cls-1" d="M600.18,444.62l-8.17,10.49h-36.05v-40.81h12.63v30.32h31.6Z"/>
        <path class="cls-1" d="M655.93,444.62l-8.17,10.49h-36.05v-40.81h12.63v30.32h31.6Z"/>
      </g>
    </g>
  </g>
</svg>