<?xml version="1.0" encoding="UTF-8"?>
<svg id="Ebene_2" data-name="Ebene 2" xmlns="http://www.w3.org/2000/svg" viewBox="0 0 87.5 100">
  <defs>
    <style>
      .cls-1 {
        fill: #fff;
      }
    </style>
  </defs>
  <g id="Pattern_weiß" data-name="Pattern weiß">
    <g>
      <g>
        <g>
          <circle class="cls-1" cx="32.32" cy="31" r="1.25"/>
          <circle class="cls-1" cx="30.57" cy="34" r="1.25"/>
          <circle class="cls-1" cx="34.07" cy="34" r="1.25"/>
        </g>
        <path class="cls-1" d="M69.17,52.84l1.66-2.84-1.66-2.84-.22.13-10.23-17.57.22-.13-1.65-2.84h-3.29v.25h-20.5v-.25h-3.29l-1.65,2.84.22.13-10.23,17.57-.22-.13-1.66,2.84,1.66,2.84.22-.13,10.23,17.56-.22.13,1.65,2.84h3.29v-.25h20.5v.25h3.29l1.65-2.84-.22-.13,10.23-17.56.22.13ZM58.29,70.03l-.22-.13-1.37,2.34h-2.71v.25h-20.5v-.25h-2.71l-1.37-2.34-.22.13-10.23-17.56.22-.13-1.36-2.34,1.36-2.34-.22-.13,10.23-17.57.22.13,1.37-2.34h2.71v-.25h20.5v.25h2.71l1.37,2.34.22-.13,10.23,17.57-.22.13,1.36,2.34-1.36,2.34.22.13-10.23,17.56Z"/>
      </g>
      <g>
        <circle class="cls-1" cx="32.25" cy="80.5" r="1.25"/>
        <circle class="cls-1" cx="30.5" cy="83.5" r="1.25"/>
        <circle class="cls-1" cx="34" cy="83.5" r="1.25"/>
      </g>
      <polygon class="cls-1" points="73.17 5.09 74.54 2.75 77.25 2.75 77.25 2.5 87.5 2.5 87.5 2 77.25 2 77.25 1.75 73.96 1.75 72.31 4.59 72.52 4.72 62.29 22.28 62.08 22.16 60.42 25 62.08 27.84 62.29 27.72 72.52 45.28 72.31 45.41 73.96 48.25 77.25 48.25 77.25 48 87.5 48 87.5 47.5 77.25 47.5 77.25 47.25 74.54 47.25 73.17 44.91 72.96 45.03 62.73 27.47 62.94 27.34 61.58 25 62.94 22.66 62.73 22.53 72.96 4.97 73.17 5.09"/>
      <polygon class="cls-1" points="73.17 55.09 74.54 52.75 77.25 52.75 77.25 52.5 87.5 52.5 87.5 52 77.25 52 77.25 51.75 73.96 51.75 72.31 54.59 72.52 54.72 62.29 72.28 62.08 72.16 60.42 75 62.08 77.84 62.29 77.72 72.52 95.28 72.31 95.41 73.96 98.25 77.25 98.25 77.25 98 87.5 98 87.5 97.5 77.25 97.5 77.25 97.25 74.54 97.25 73.17 94.91 72.96 95.03 62.73 77.47 62.94 77.34 61.58 75 62.94 72.66 62.73 72.53 72.96 54.97 73.17 55.09"/>
      <polygon class="cls-1" points="14.33 44.91 12.96 47.25 10.25 47.25 10.25 47.5 0 47.5 0 48 10.25 48 10.25 48.25 13.54 48.25 15.19 45.41 14.98 45.28 25.21 27.72 25.42 27.84 27.08 25 25.42 22.16 25.21 22.28 14.98 4.72 15.19 4.59 13.54 1.75 10.25 1.75 10.25 2 0 2 0 2.5 10.25 2.5 10.25 2.75 12.96 2.75 14.33 5.09 14.54 4.97 24.77 22.53 24.56 22.66 25.92 25 24.56 27.34 24.77 27.47 14.54 45.03 14.33 44.91"/>
      <polygon class="cls-1" points="14.33 94.91 12.96 97.25 10.25 97.25 10.25 97.5 0 97.5 0 98 10.25 98 10.25 98.25 13.54 98.25 15.19 95.41 14.98 95.28 25.21 77.72 25.42 77.84 27.08 75 25.42 72.16 25.21 72.28 14.98 54.72 15.19 54.59 13.54 51.75 10.25 51.75 10.25 52 0 52 0 52.5 10.25 52.5 10.25 52.75 12.96 52.75 14.33 55.09 14.54 54.97 24.77 72.53 24.56 72.66 25.92 75 24.56 77.34 24.77 77.47 14.54 95.03 14.33 94.91"/>
      <polygon class="cls-1" points="69.17 97.16 68.96 97.28 58.73 79.72 58.94 79.59 57.29 76.75 54 76.75 54 77 33.5 77 33.5 76.75 30.21 76.75 28.56 79.59 28.77 79.72 18.54 97.28 18.33 97.16 16.67 100 17.83 100 19.19 97.66 18.98 97.53 29.21 79.97 29.42 80.09 30.79 77.75 33.5 77.75 33.5 77.5 54 77.5 54 77.75 56.71 77.75 58.08 80.09 58.29 79.97 68.52 97.53 68.31 97.66 69.67 100 70.83 100 69.17 97.16"/>
      <polygon class="cls-1" points="16.67 0 16.67 0 18.33 2.84 18.54 2.72 28.77 20.28 28.56 20.41 30.21 23.25 33.5 23.25 33.5 23 54 23 54 23.25 57.29 23.25 58.94 20.41 58.73 20.28 68.96 2.72 69.17 2.84 70.83 0 70.83 0 69.67 0 69.67 0 68.31 2.34 68.52 2.47 58.29 20.03 58.08 19.91 56.71 22.25 54 22.25 54 22.5 33.5 22.5 33.5 22.25 30.79 22.25 29.42 19.91 29.21 20.03 18.98 2.47 19.19 2.34 17.83 0 17.83 0 16.67 0"/>
    </g>
  </g>
</svg>