<?xml version="1.0" encoding="UTF-8"?>
<svg id="Ebene_2" data-name="Ebene 2" xmlns="http://www.w3.org/2000/svg" viewBox="0 0 1521.14 1826.66">
  <defs>
    <style>
      .cls-1 {
        fill: #fff;
      }
    </style>
  </defs>
  <g id="Logo_komplett" data-name="Logo komplett">
    <g>
      <path class="cls-1" d="M1521.14,0c-190.3,106.25-385.43,166.2-519.04,99.42-50.06-21.85-55.72-54.62-55.72-54.62,0,0-4.04,30.59-47.64,50.26-92.12,38.85-184.23,38.85-276.35,0-43.6-19.66-47.64-50.26-47.64-50.26,0,0-5.65,32.78-55.72,54.62C385.43,166.2,190.3,106.25,0,0c17.99,912.12,282.98,1636.02,758.45,1824.96v.41s0,1.29,0,1.29c.54-.21,1.08-.43,1.61-.65l.5-.2.5.2c.54.21,1.07.44,1.61.65v-1.29s0-.41,0-.41C1238.16,1636.02,1503.14,912.12,1521.14,0ZM1386.3,657.56c.03-.71.06-1.42.09-2.13-.03.71-.06,1.42-.09,2.13ZM1354.31,230.47c-2.01-1.83-5.05-3.07-9.1-3.73l-65.49-10.61,18.37-17.12,48.39,7.84c4.28.69,8.64,1.8,13.09,3.33,4.45,1.53,8.38,3.61,11.81,6.24,3.42,2.63,6.07,5.87,7.95,9.72,1.88,3.85,2.38,8.47,1.5,13.87-.47,2.93-1.37,5.63-2.7,8.11-1.33,2.48-3,4.63-5.03,6.46-2.03,1.83-4.38,3.27-7.06,4.34-2.68,1.07-5.6,1.65-8.77,1.75,1.12,1.18,2.34,2.65,3.67,4.41,1.33,1.76,3.1,4.16,5.3,7.21l11.47,16.87-31.17-5.05-13.54-22.64-35.79-5.8-3.23,19.92-23.29-3.77,6.24-38.49,65.49,10.61c3.6.58,6.76.33,9.48-.77,2.72-1.1,4.29-2.96,4.72-5.59.47-2.93-.3-5.3-2.31-7.13ZM1185.53,183.73l87.6,11.46-17.72,17.69-48.94-6.4-1.18,9.04,59.91,7.84-15.7,15.42-46.46-6.08-1.35,10.29,64.32,8.42-17.58,17.48-72.8-9.52,9.89-75.62ZM1067.85,209l65.33,6.57c3.63.36,6.53-.15,8.69-1.53,2.16-1.39,3.38-3.4,3.64-6.05.27-2.65-.53-4.85-2.37-6.6-1.85-1.75-4.59-2.81-8.22-3.17l-65.33-6.57,17.52-18.17,47.64,4.79c5.9.59,11.08,1.82,15.56,3.68,4.47,1.86,8.17,4.2,11.09,7.02,2.93,2.81,5.04,6.05,6.36,9.69,1.31,3.65,1.76,7.59,1.33,11.82-.43,4.24-1.64,7.99-3.65,11.26-2.01,3.27-4.74,5.96-8.2,8.05-3.46,2.1-7.56,3.59-12.31,4.49-4.75.9-10.07,1.05-15.97.46l-39.7-3.99-1.95,19.4-23.37-2.35,3.9-38.79ZM1032.37,169.05l23.53,1.85-6,76.03-23.52-1.86,6-76.03ZM924.49,162.39l31.49,52.42,38.52-48.58,27.77,1.53-52.5,66.19c-1.79,2.11-3.95,3.97-6.47,5.58-2.53,1.61-5.61,2.32-9.25,2.12-3.57-.2-6.5-1.18-8.8-2.94s-4.22-3.9-5.75-6.42l-43.91-71.49,28.91,1.59ZM765.13,158.49l23.6.38-.92,56.65,59.04.96-15.59,19.36-67.37-1.09,1.24-76.26ZM754.95,158.49l-14.95,20.08-49.36.8.15,9.12,60.41-.98-13.28,17.55-46.85.76.17,10.37,64.86-1.05-14.84,19.85-73.41,1.19-1.24-76.26,88.34-1.43ZM705.13,270.54c-.92,0-1.85.01-2.77.02.92-.01,1.85-.01,2.77-.02ZM657.16,160.06l-14.44,20.45-46.47,1.93.41,9.91,57.41-2.38-13.58,19.16-43.05,1.79,1.16,27.91-23.69.98-3.16-76.2,85.43-3.55ZM562.27,164.04l-13.89,20.83-46.4,3.16.67,9.9,57.32-3.9-13.07,19.51-42.99,2.93,1.9,27.87-23.66,1.61-5.18-76.09,85.3-5.8ZM514.32,280.99c-.97.1-1.93.2-2.89.29.96-.1,1.93-.2,2.89-.29ZM389.85,185.34c1.37-2.35,3.18-4.52,5.42-6.5,2.25-1.98,5.22-3.16,8.93-3.53,3.55-.35,6.6.16,9.15,1.55,2.54,1.39,4.77,3.21,6.68,5.46l54.28,63.89-88.25,8.82,12.23-20.93,19.06-1.9c2.27-.23,4.63-.46,7.09-.71,2.46-.25,4.6-.38,6.43-.41-1.2-1.26-2.6-2.85-4.2-4.79-1.61-1.94-3.14-3.75-4.61-5.44l-15.62-18.72-30.58,53.93-27.79,2.78,41.8-73.49ZM251.46,194.97l85.88-11.46-12.52,21.68-27.01,3.6,7.46,55.93-23.39,3.12-7.46-55.93-35.48,4.73,12.52-21.68ZM142.6,226.38c.77-3.09,2.28-5.86,4.54-8.3s5.34-4.56,9.25-6.35c3.91-1.79,8.71-3.15,14.41-4.07l65.38-10.62-11.79,22.01-52.21,8.48c-2.7.44-4.65,1.14-5.84,2.1-1.19.96-1.63,2.42-1.31,4.37.32,1.95,1.19,3.21,2.64,3.79,1.44.57,3.51.64,6.21.2l40.96-6.65c9.23-1.5,16.52-.93,21.87,1.7,5.35,2.63,8.59,7.4,9.71,14.3.62,3.83.58,7.38-.12,10.65-.7,3.27-2.19,6.17-4.48,8.7-2.29,2.53-5.38,4.69-9.29,6.47-3.91,1.79-8.71,3.15-14.41,4.07l-70.1,11.39,11.82-21.79,56.94-9.25c2.77-.45,4.73-1.21,5.87-2.28,1.13-1.07,1.54-2.58,1.23-4.53-.32-1.95-1.18-3.23-2.59-3.85-1.41-.62-3.5-.7-6.28-.25l-40.96,6.65c-4.88.79-9.16.95-12.86.47-3.7-.48-6.86-1.46-9.49-2.96-2.63-1.5-4.72-3.49-6.28-5.97-1.56-2.48-2.6-5.33-3.12-8.56-.57-3.53-.47-6.83.29-9.92ZM135.76,655.42c.03.72.06,1.43.09,2.14-.03-.71-.06-1.43-.09-2.14ZM702.33,1755.83l-17.17-14.96c-2.95-2.55-5.2-4.53-6.76-5.95-1.56-1.42-2.82-2.61-3.78-3.57.06,1.3.11,2.65.17,4.04.06,1.39.08,2.76.08,4.12v16.32h-17.68v-56.87h17.68v13.17c0,1.76-.03,3.49-.08,5.19-.06,1.7-.14,3.29-.26,4.76,1.13-1.02,2.51-2.28,4.12-3.78,1.62-1.5,3.73-3.33,6.33-5.48l16.41-13.86h25.5l-21.76,16.32c-1.87,1.42-3.53,2.66-4.97,3.74-1.44,1.08-2.73,2.01-3.87,2.8-1.13.79-2.17,1.5-3.1,2.12-.94.62-1.86,1.22-2.76,1.79,1.64,1.13,3.63,2.55,5.95,4.25,2.32,1.7,5.33,4.05,9.01,7.05l23.54,18.79h-26.6ZM791.83,1755.83l-12.67-15.04h-27.03v15.04h-17.6v-29.07h49.47c2.72,0,5.01-.57,6.88-1.7s2.8-2.69,2.8-4.68c0-2.21-.85-3.87-2.55-4.97-1.7-1.1-4.08-1.66-7.14-1.66h-49.47l11.48-14.79h36.55c3.23,0,6.57.3,10.03.89,3.46.59,6.6,1.66,9.43,3.19,2.83,1.53,5.17,3.6,7.01,6.21,1.84,2.61,2.76,5.95,2.76,10.03,0,2.21-.34,4.31-1.02,6.29-.68,1.98-1.66,3.77-2.93,5.35-1.27,1.59-2.83,2.93-4.67,4.04-1.84,1.1-3.92,1.88-6.25,2.34.96.74,2.04,1.67,3.23,2.81,1.19,1.13,2.78,2.69,4.76,4.67l10.45,11.05h-23.54ZM880.91,1713.75h-20.31v42.08h-17.59v-42.08h-26.69l11.39-14.79h64.6l-11.39,14.79ZM964.29,1631.72l-44.57-211.22c-.54.27-1.08.54-1.62.81l45.12,210.72c-44.36,12.99-88.72,21.73-133.08,26.2l-11.77-172.02c-.49.64-.98,1.28-1.47,1.93l12.15,170.2c-45.32,4.5-90.65,4.54-135.97.08l15.69-219.68c-.61.34-1.21.69-1.82,1.03l-14.96,218.55c-44.36-4.43-88.72-13.16-133.09-26.23l37.24-173.95c-.51-.21-1.04-.41-1.54-.62l-36.77,174.25c-8.92-2.64-17.85-5.45-26.77-8.45-28.92-25.14-57.22-50.5-84.85-78.11l51.2-140.02c-.45-.46-.89-.92-1.32-1.38l-50.87,140.41c-30.54-30.6-60.24-64.01-89.01-102.96l44.52-83.44c-.4-.46-.8-.93-1.21-1.41l-44.27,83.56c-23.37-31.77-46.12-67.24-68.19-107.89l59.61-81.79c-.08-.99-.15-1.99-.2-2.98l-60.26,83.2c-3.74-6.91-7.46-13.97-11.16-21.19-12.66-28.65-24.69-58.32-36.01-89.17l141.89-146.5-.8-2.6-141.77,147.24c-22.98-62.91-42.97-130.72-59.14-204.76.12.55.24,1.1.36,1.65l228.53-131.49c-10.87,27.43-18.64,56.44-22.86,86.58l-181.26,142.05c.19.66.38,1.32.57,1.98l180.19-140.35c-1.65,12.71-2.68,25.61-3.05,38.67,3.31-8.9,8.02-17.61,14.09-26.02l3.94-5.46,20.99-29.11,4.2,2.39c9.96-23.53,16.74-51.98,18.95-80.98,1.45-19.02.84-36.86-1.77-51.59-.2-1.12-.41-2.18-.62-3.21-12.31,19.17-22.94,39.53-31.69,60.85,0,0,0,0,0-.01l-230.67,133.63c-6.43-29.49-12.26-59.97-17.43-91.53l133.3-53.63-.84-2.37-132.81,53.89c-4.7-28.87-8.84-58.64-12.4-89.38.07.62.14,1.25.21,1.87l124.97-30.96c-.14-.83-.27-1.66-.4-2.49l-124.81,31.31c-6.28-54.3-10.73-111.6-13.11-172.28l163.51,5.95c.44-.86.89-1.73,1.34-2.59l-164.93-5.52c-1.08-28.13-1.72-56.99-1.89-86.61l209.47,37.25c1.16-.74,2.34-1.46,3.53-2.17l-213.01-37.23c0,.72,0,1.43.01,2.15-.18-30.16.13-61.11.93-92.89l337.26,110.14c2.91-.08,5.94-.19,9.1-.32l-346.31-111.96c-.02.71-.03,1.42-.05,2.13.82-32.45,2.17-65.76,4.07-99.97l407.84,199.66c1.57-.49,3.15-.95,4.75-1.36l-412.46-200.42c-.04.7-.08,1.41-.12,2.11.38-6.84.78-13.7,1.2-20.61,33-10.06,66.44-19.24,100.3-27.54-.22.06-.45.11-.67.17l353.46,239.18c.45-1.06.91-2.12,1.39-3.17l-352.05-236.7c62.41-15.24,126.29-27.46,191.62-36.63l190.93,228.23c.78-.81,1.57-1.62,2.38-2.42l-190.39-226.22c24.59-3.41,49.39-6.39,74.39-8.93l135.87,218.15c.9-.67,1.82-1.32,2.74-1.98l-135.71-216.47c61.43-6.15,124.11-9.64,188.03-10.42l26.65,191.67c1.1-.2,2.19-.41,3.3-.6l-27.15-191.1c36.91-.4,74.23.1,111.98,1.52-.13,0-.25,0-.38-.01l-26.26,184.85c1.12,0,2.24.03,3.37.03l25.69-184.79c18.48.71,37.06,1.66,55.74,2.81l-52.82,183.18c1.13.08,2.25.17,3.38.26l52.26-183.27c20.4,1.28,40.92,2.83,61.57,4.64-.85-.07-1.7-.14-2.55-.21l-81.44,182.18c1.13.16,2.26.31,3.4.48l80.9-182.42c21.37,1.88,42.87,4.05,64.49,6.51l-114.82,183.15c1.1.3,2.2.61,3.29.92l114.43-183.73c24.13,2.76,48.42,5.87,72.87,9.35l-155.38,184.62c1.08.39,2.16.79,3.23,1.19l155.1-185.4c28.19,4.04,56.6,8.56,85.22,13.56l-207.38,186.17c1.02.51,2.04,1.03,3.05,1.56l207.28-187.2c34.88,6.13,70.07,12.98,105.58,20.55-.74-.16-1.48-.32-2.22-.48l-279.36,187.83c.78.74,1.54,1.5,2.3,2.26l279.99-189.46c34.51,7.37,69.31,15.4,104.41,24.14.42,6.9.82,13.77,1.2,20.6-.04-.7-.08-1.4-.12-2.09l-365.4,177.55c.39.98.77,1.97,1.13,2.96l364.39-178.4c3.76,67.71,5.36,131.89,5,192.86,0-.72.01-1.43.01-2.15l-362.38,63.34.1,3.23,362.27-64.43c-.17,29.61-.81,58.47-1.89,86.61l-359.29,12.01.1,3.21,359.1-13.07c-1.16,29.52-2.81,58.24-4.92,86.21.03-.44.07-.88.1-1.32l-317.56-33.85c3.38,1.18,6.68,2.56,9.88,4.14l307.52,31.86c-2.21,29.23-4.93,57.62-8.13,85.25l-239.89-60.19c.62.53,1.23,1.05,1.8,1.54,1.02.87,2.04,1.74,3.05,2.61l234.8,58.17c.05-.46.11-.93.16-1.39-7.53,64.95-17.7,125.59-30.12,182.54l-152.08-88.1c.14.47.29.93.43,1.42.19.67.37,1.37.55,2.06l150.65,86.68c.13-.6.27-1.2.4-1.81-7.64,34.98-16.12,68.57-25.37,100.91.19-.66.38-1.31.56-1.97l-105.59-82.74c0,.12,0,.24-.02.35-.05.8-.14,1.59-.22,2.39l105.25,81.98c-20.16,70.45-43.95,134.97-70.48,195.02-3.7,7.22-7.42,14.28-11.16,21.19l-56.57-78.11c-.34.61-.69,1.2-1.04,1.8l56.76,77.88c-22.08,40.65-44.82,76.12-68.19,107.89l-60.24-113.71c-.51.34-1.02.67-1.53,1.01l60.83,113.99c-28.76,38.96-58.47,72.36-89.01,102.96l-61.26-169.1c-.55.26-1.09.51-1.64.77l61.91,169.32c-27.62,27.61-55.93,52.97-84.85,78.11-8.93,2.97-17.85,5.76-26.78,8.39Z"/>
      <path class="cls-1" d="M426.45,1069.09c22.29,34.98,63.09,33.08,126.76-14.39.1-.08.2-.17.27-.28,52.34-79.24,104.4-150.77,155.54-197.83.06-.05.11-.11.15-.17,10.97-15.64,22.93-32.68,35.46-50.56,15.82-20.5,26.48-43.89,31.75-70.31,3.14-20.89-.68-40.52-19.72-48.56-.7-.3-.94-1.19-.43-1.76,4.72-5.3,10.61-9.47,17.81-12.38.15-.06.28-.16.39-.28,2.64-2.89,12.3-6.62,18.9-7.6.51-.07.9-.47.95-.98.36-3.78-.08-16.37-.46-25.29-.06-1.32,1.82-1.62,2.18-.35,2.43,8.53,5.77,20.6,6.37,24.68.09.61.66,1.02,1.27.93,1.92-.29,1.92-.69,4.87-.62.32,0,1.47-17.32,2.26-29.81.08-1.35,2.06-1.4,2.22-.06,1.49,12.72,3.62,30.61,3.84,30.62,4.76.24,6.85.54,11.74,1.52.7.14,1.35-.41,1.34-1.13-.16-11.5,5.07-19.21,9.22-23.49.89-.92,2.36.12,1.8,1.26-2.74,5.64-5.9,15.05-3.11,24.98.11.39.44.69.84.79,6.63,1.54,9.87,2.73,17.48,5.71.64.25,1.35-.13,1.49-.81,1.28-6.27,6.85-14.59,10.69-19.37.78-.98,2.33-.12,1.92,1.06-2.21,6.37-5.53,17.31-4.4,22.55.07.34.34.62.66.75,8.78,3.67,14.4,6.71,24.56,12.35.69.39,1.53-.06,1.65-.85.75-5.05,4.91-10.77,8.25-14.66.81-.95,2.32-.03,1.88,1.13-2.12,5.54-4.62,13.79-2.97,18.8.08.26.28.47.51.61,10.7,6.11,19.05,11.7,31.3,20.04.78.53,1.78-.08,1.72-1.02-.31-4.89,2.72-9.76,5.18-12.87.73-.92,2.21-.25,1.97.9-1.04,5.01-2.19,13.35.15,18.9.08.2.22.36.4.48,4.02,2.8,8.08,5.63,12.23,8.56,11.02,7.8,26.31.57,27.26-12.86,0-.08,0-.17,0-.25l-3.85-30.12c-.07-.56-.54-.97-1.1-.97h-6.62c-.61,0-1.11-.5-1.11-1.11v-19.66c0-1.28,1.8-1.55,2.18-.33l4.4,14.2c.05.16.14.31.25.43.72.76,2,.2,1.92-.84l-2.93-40.34c-.05-.68-.7-1.16-1.36-1l-5.97,1.39c-.7.16-1.36-.37-1.36-1.08v-26.77c0-1.28,1.8-1.55,2.18-.33l6.19,20.13.53,1.7,1.49-23.18c1.47-22.86-10.81-44.35-31.16-54.86-23.54-12.16-51.82-21.76-89.94-30.57-.03,0-.06-.01-.09-.02-42.28-6.3-82.42-7.21-119.34,0-.04,0-.08.02-.12.03-60.11,18.16-101.47,52.39-107.22,117.13-.04.47-.37.87-.83.99-10.62,2.76-20.64,1.04-30.14-4.68-.06-.04-.13-.07-.2-.1-18.63-6.56-34.94-5.8-48.02,5.11-.17.14-.38.23-.6.25-74.45,7.05-114.65,6.56-127.86.13-.21-.1-.44-.14-.68-.1-22.34,3.94-41.52,11-56.19,22.5-.1.08-.18.17-.25.27-38.99,58.22-51.77,112.03-35.43,160.92.3.89,1.5,1.02,2,.22,40.97-65.11,95.94-81.6,136.35-50.17,40.79,31.73,36.63,170.13-15.75,246.27-.08.12-.14.27-.17.42-1.42,7.77-6.28,8.6-13.45,4.79-.5-.27-1.13-.13-1.45.33-10.06,14.32-12.41,27.8-8.54,40.6.03.11.08.21.14.31ZM732.16,754.07c10.07,8.88,3.78,25.7-6.05,41.58,5.24-16.89,6.05-18.9-5.29-34.02-11.34-15.12-63.5-35.53-63.5-35.53,0,0,57.46,17.39,71.82,18.14,13.92.73,22.68-8.32,22.68-8.32,0,0-3.02,12.85-19.66,18.14ZM780.6,608.24v-12.91l4.69,8.22,8.64,4.69h-13.32ZM930.45,658.52v-25.78l6.35,19.43,20.26,6.35h-26.61ZM921.42,580.17l8.71,24.39,24.68,7.95h-33.39v-32.34ZM893.1,630.89v-23.44l6.05,17.39,18.14,6.05h-24.19ZM881.36,559.11l6.78,22.33,23.27,6.78h-30.05v-29.11ZM859.54,614.6v-21.09l5.75,15.35,16.03,5.75h-21.77ZM844.76,546.96l7.16,19.79,19.88,6.4h-27.04v-26.2ZM848.47,602.2h-19.6v-18.98l5.47,13.51,14.12,5.47ZM808.45,544.74l5.73,15.23,15.91,5.73h-21.63v-20.96ZM802.11,583.6l4.98,10.2,10.69,4.98h-15.68v-15.19ZM779.84,561.28l5.32,12.49,13.07,5.32h-18.39v-17.81ZM762.85,611.58l4.59,7.56,7.95,4.59h-12.54v-12.15ZM758.62,639.16c-14.55,1.17-23.55,4.17-17.55,21.17,0,9,16.04,21.17,12.26,25.7-3.02-6.05-47.63-15.88-56.7-6.8,18.44-27.9,31.07-17.2,31.44-23.9,1-18,17-26,30.55-16.17ZM624.07,652.33c10-2,18.33-17.89,22-32,13-50,47.31-59.27,92.89-73.4-42.35,15.36-70.89,39.4-67.89,64.4,1.91,15.89,15,13,15,23s-12,13-12,13c21.5,1.74,26.86-3.94,25-16s8-27,24.77-23.16c-11.77,10.16-14.77,16.16-12.1,23.44,10.48,28.46-19.66,46.87-19.66,46.87,0-9.07-30.82-15.51-95.26-20.41l27.24-5.73ZM583.51,699.84c6.65-5.24,16.02-11.65,28.78-15.7,18.86,4.82,32.68,11.9,39.25,22.24l32.71,20.93c-13.56-7.47-29.11-13.93-36.63-11.77-9.83,6.96-21.84,9.94-36.63,7.85-6.36-3.33-14.79-7.75-27.47-14.39l-30.09-6.54,30.09-2.62ZM528.04,678.47c12.27,7.23,18.58,13.63,16.63,18.9-4.33,6.77-1.17,11.46,2.27,18.9,7.13,10.37,11.59,14.01,17.39,17.39,6.94,4.05,24.19,16.63,29.48,36.29,4.54,15.88,32.03,22.61,46.87,24.19-17.06.57-35.53,7.56-54.86-20.14-5.88-16.21-25.41-32.1-30.66-35.3-6.61-4.02-11.46-8.75-18.81-18.65-2.27,4.54-10.58,1.51-15.88-3.02,7.48.26,12.85,2.27,14.36-2.27-1.94-5.31.26-11.51,4.54-18.14,1.94-4.17-5.07-9.98-16.63-16.63-1.46-1.07-6.41-2.38-12.85-3.78,5.6-.67,11.35-.84,18.14,2.27ZM574.91,781.29c-23.2-9.37-34.51,13.73-41.58,48.38,2.7-31.54,11.86-53.55,31.75-59.72,7.56-1.51,9.83,7.4,9.83,11.34ZM469.35,682.29c2.43,4.26,2.43,8.52,0,12.78l-10.81-2.95c5.36-2.51,8.37-6.04,10.81-9.83ZM399.32,655.64c17.85-7.78,26.39-8.21,31.95,2.42-6.54-6.48-14.28-6.43-31.35-.67-6.45-.85-23.52,4.39-31.4,7.47,7.51-3.71,21.17-9.07,30.8-9.23ZM432.57,686.22l-9.83-2.95c-2.61-3.18-1.43-7.33.98-11.79,2.4,7.45,5.37,12.27,8.85,14.74ZM435.05,1033.04s11.34,11.34,14.12,4.23c16.89-27.65,33.51-39.77,50.14-140.31,26.05-178.79-105.89-179.11-170.86-81.65-8.32-57.46,23.44-119.45,31-125.5,7.56-6.05,12.24-6.98,27.22-5.29,8.64,5.54,21.23,8.22,35.21,9.88l7.12-1.56c5.64,9.75,15.1,10.82,26.46,7.56l5.14,4.86c14.81,7.31,31.8,11.56,50.05,14.04,3.78,6.05-7,30.09-3.02,38.56,7.53,5.09,11.37,13.06,12.1,23.44-1.98,41.04,1.21,75.24,12.85,98.28,2.68-31.45,11.43-75.68,38.56-86.18,57.7,3.29,78.03,34.39,43.09,106.6,9.07-10.58-2.39,3.23,12.85-13.61,39.31-45.36-8.32-85.43-8.32-85.43,0,0,54.73,12.28,45.36,49.14l6.05-8.32c1.51-27.97-40.07-40.82-40.07-40.82,0,0,34.02-13.61,57.46,15.12,4.54-6.05,3.78-6.8,2.27-10.58-2.24-7.03-18.1-9.48-39.31-12.1,15.85-1.72,29.52-12.9,48.38-10.58,15.88,2.27,23.51,25.52,6.8,44.6-27.97,34.78-68.8,63.5-93.74,93.74-24.19,29.48-63.5,99.04-68.04,107.35-2.59,4.75-2.8,14.13-15.12,24.95-6.45,4.78-22.68-6.8-22.68-6.8-1.68,3.76,5.83,13.77,10.73,14.23,1.37.13.56,1.3.33,1.45-8.9,5.53-20.96,10.13-37.52,12.29-35.43,4.43-40.07-12.1-35.14-25.26.22-.67.71-2.4-.49-2.89-3.9-1.59-9.93-11.6-8.97-13.43Z"/>
      <path class="cls-1" d="M570.16,892.84c-4.44,4.98-9.16,10.38-14.15,16.21,62.34-63.19-14.49,60.06-68.04,122.47,15.88-15.88,33.26-24.19,33.26-6.8,106.26-159.08,121.92-206.81,69.95-154.42,9.19-18.63-4.5-31.88-35.93-46.68,22.29,26.64,27.35,49.1,14.91,69.22Z"/>
      <path class="cls-1" d="M385.91,686.03c-15.12,0-3.78-1.51-11.34,4.54-7.56,6.05-38.56,37.8-40.82,108.86,12.85-73.33,55.94-97.52,80.89-104.33-18.9,1.51-28.73-9.07-28.73-9.07Z"/>
      <path class="cls-1" d="M503.85,1065.55c5.29-1.51,5.07-3.47.76-2.27-60.48,15.88-40.07-21.92-8.25-79.34,8.39-15.14,37.04-46.6,52.1-65.06-10.58,9.07-15.12,13.61-31,21.92-5.29-18.14-6.8-47.63-6.8-47.63,0,0-4.7,65.68-12.85,73.33-63.5,95.26-55.94,113.4,6.05,99.04Z"/>
      <path class="cls-1" d="M823.15,729.28l-.08.43-.06.35-.09.5-.1.5c-6.58,33.02-20.08,63.07-40.12,89.32l-35.51,50.63-2.48,3.54-3.18,2.93-.6.56c-43.25,39.77-87.76,99.88-125.33,154.99,40.37-33.51,78.64-67.56,115.09-99.99,47.17-41.98,91.72-81.64,135.57-115.77,24.45-19.03,46.97-35,68.29-48.39-3.99-1.57-7.84-3.52-11.52-5.83l-90.4-56.98c-2.77-.69-5.44-1.31-8.02-1.84.36,7.85-.1,16.08-1.39,24.62l-.07.44Z"/>
      <path class="cls-1" d="M496.13,1124.19c-9.87,2.44-19.42,3.66-28.8,3.66-6.19,0-12.33-.55-18.25-1.64-25.75-4.75-47.42-19.57-62.79-42.9,5.15,32.42,14.4,63.47,27.21,92.61,28.44-16.01,55.96-33.41,82.64-51.72Z"/>
      <path class="cls-1" d="M742.65,1182.28c58.15-36.95,131.2-85.27,207.79-147.06-53.91,34.3-123.89,80.27-207.79,147.06Z"/>
      <path class="cls-1" d="M980.48,1244.53c40.73-23.57,50.19-44.62,58.54-63.18,1.33-2.97,2.69-5.98,4.16-8.97-43.42,31.63-84.54,67.61-122.43,100.78-16.35,14.31-32.19,28.17-47.64,41.22,26.93-20.77,62.22-43.72,107.37-69.85Z"/>
      <path class="cls-1" d="M1185.86,997.38c-11.12-22.74-8.39-75.87-22.28-77.36-31.36-3.36-47.96,9.39-61.6,19.04-306.92,274.82-599.32,390.43-595.12,444.02,2.97,18.94,68.21,38.26,83.84,49.59,19.25,13.96,57.36,18.94,76.37,4.66,139.26-60.02,308.99-274.26,512.13-382.31,17.26-12.97,16.15-38.25,6.66-57.64ZM730.97,1275.97l19.41-32.26-11.33,45.67-47.15-11.7,39.07-1.72ZM597.02,1396.76l-47.15-11.7,39.07-1.72,19.41-32.26-11.33,45.67ZM625.72,1332.65l39.07-1.72,19.41-32.26-11.33,45.67-47.15-11.7ZM687.37,1407.1l-47.15-11.7,39.07-1.72,19.41-32.26-11.33,45.67ZM750.03,1346.42l-37.72-9.36,31.25-1.37,15.53-25.81-9.06,36.54ZM795.24,1217.97l15.53-25.81-9.06,36.54-37.72-9.36,31.25-1.37ZM802.71,1303.42l-37.72-9.36,31.25-1.37,15.53-25.81-9.06,36.54ZM863.53,1253.55l-30.17-7.49,25-1.1,12.42-20.65-7.25,29.23ZM864.06,1188.24l-37.72-9.36,31.25-1.37,15.53-25.81-9.06,36.54ZM915.91,1215.64l-30.17-7.49,25-1.1,12.42-20.65-7.25,29.23ZM922.33,1148.05l-30.17-7.49,25-1.1,12.42-20.65-7.25,29.23ZM965.73,1171.82l-30.17-7.49,25-1.1,12.42-20.65-7.25,29.23ZM974.71,1110.14l-30.17-7.49,25-1.1,12.42-20.65-7.25,29.23ZM1020.68,1128.41l-36.21-8.98,30-1.32,14.91-24.78-8.7,35.08ZM1026.13,1071.97l-30.17-7.49,25-1.1,12.42-20.65-7.25,29.23ZM1075.76,1081.32l-28.97-7.19,24-1.05,11.93-19.82-6.96,28.06ZM1082.34,1027.79l-36.21-8.98,30-1.32,14.91-24.78-8.7,35.08ZM1131.06,969.91l14.91-24.78-8.7,35.08-36.21-8.98,30-1.32ZM1141.14,1037.75l-25.35-6.29,21-.92,10.44-17.34-6.09,24.55Z"/>
      <path class="cls-1" d="M1151.07,849.33c-3.71-23.68-63.52-59.77-73.55-79.49-13.47-26.49-47.61-34.38-71.37-16.53-174.07,75.02-349.07,316.02-603,451.09-21.58,16.21-20.18,47.81-8.33,72.05,13.9,28.43,44.24,72.34,61.6,74.2,3.98.43,7.77.64,11.39.67.36,0,.73.02,1.08.02.26,0,.51,0,.77-.01,30.85-.22,48.74-13.85,63.76-24.48,383.65-343.52,622.9-410.54,617.65-477.52ZM895.4,987.2l-37.64-.54,28.91-8.44,9.29-29.87-.56,38.86ZM1084.12,850.83l11.61-37.34-.69,48.57-47.05-.67,36.14-10.56ZM1027.12,800.83l11.61-37.34-.69,48.57-47.05-.67,36.14-10.56ZM1014.12,890.83l11.61-37.34-.69,48.57-47.05-.67,36.14-10.56ZM957.12,860.83l11.61-37.34-.69,48.57-47.05-.67,36.14-10.56ZM941.67,938.22l9.29-29.87-.56,38.86-37.64-.54,28.91-8.44ZM887.12,910.83l11.61-37.34-.69,48.57-47.05-.67,36.14-10.56ZM832.13,1002.23l-.44,31.09-30.11-.43,23.13-6.76,7.43-23.9ZM814.67,958.22l9.29-29.87-.56,38.86-37.64-.54,28.91-8.44ZM782.13,1043.23l-.44,31.09-30.11-.43,23.13-6.76,7.43-23.9ZM759.67,1008.22l9.29-29.87-.56,38.86-37.64-.54,28.91-8.44ZM727.07,1080.24l-.44,31.09-30.11-.43,23.13-6.76,7.43-23.9ZM707.71,1056.13l7.43-23.9-.44,31.09-30.11-.43,23.13-6.76ZM657.71,1097.13l7.43-23.9-.44,31.09-30.11-.43,23.13-6.76ZM662.28,1144.8l8.91-28.68-.53,37.3-36.14-.52,27.76-8.11ZM607.71,1137.13l7.43-23.9-.44,31.09-30.11-.43,23.13-6.76ZM604.39,1187.8l7.13-22.94-.43,29.84-28.91-.41,22.2-6.49ZM497.66,1228.42l-36.14-.52,27.76-8.11,8.91-28.68-.53,37.3ZM549.28,1178.8l8.91-28.68-.53,37.3-36.14-.52,27.76-8.11ZM546.45,1240.79l6.24-20.07-.37,26.11-25.3-.36,19.43-5.67Z"/>
      <path class="cls-1" d="M675.54,482.08l-92.45-206.82c-.95.06-1.91.13-2.86.2l92.31,208.16c.99-.52,2-1.03,3-1.54Z"/>
      <path class="cls-1" d="M762.47,270.64c-.93-.01-1.86-.03-2.79-.04l-.28,187.61c1.11-.09,2.23-.18,3.35-.27l-.28-187.3Z"/>
      <path class="cls-1" d="M703.08,470.02l-57.11-198.04c-.94.04-1.88.08-2.83.11l56.78,199.12c1.04-.4,2.1-.79,3.16-1.18Z"/>
      <path class="cls-1" d="M608.69,538.85l-260.86-234.18c-.97.18-1.93.37-2.9.55l261.84,236.47c.63-.95,1.27-1.9,1.92-2.83Z"/>
      <path class="cls-1" d="M1387.34,475.92c-.02-.72-.03-1.42-.05-2.14l-362.62,117.23.1,3.31,362.57-118.4Z"/>
      <path class="cls-1" d="M140.82,744.6l134.69-13.95c.15-.77.29-1.54.45-2.31.02-.1.05-.21.07-.31l-135.37,14.43c.05.72.11,1.43.17,2.15Z"/>
      <path class="cls-1" d="M1360.76,919.49l-169.62-68.82c.01.94,0,1.88-.02,2.83l169.3,68.11c.11-.7.23-1.41.34-2.11Z"/>
      <path class="cls-1" d="M1193.9,1128.09l89.18,92.08c.23-.62.45-1.24.67-1.86l-96.81-100.55c2.48,3.54,4.81,6.97,6.96,10.33Z"/>
      <path class="cls-1" d="M1158.8,1089.44c.66.35,1.3.73,1.94,1.11l-1.39-1.44c-.18.11-.37.22-.55.33Z"/>
      <path class="cls-1" d="M370.54,834.63c-.87,1.31-1.73,2.65-2.59,4.01l71.36-28.71c-.31-1.02-.63-1.96-.94-2.83l-67.84,27.53Z"/>
      <path class="cls-1" d="M1183.2,1112.51l-.08-.11c-5.45-7.33-12.86-16.14-22.38-21.86l26.2,27.21c-1.18-1.69-2.4-3.4-3.66-5.14l-.08-.11Z"/>
      <path class="cls-1" d="M1162.07,1242.33c31.54-57.28,44-64,5-118-26-35-41-19-62,13s-20.5,76.09-105,125c-275.5,159.45-281.03,227.47-258.33,370.47.61,3.84,6.18,3.74,6.63-.12,5.7-48.93,24.95-151.51,87.7-189.34,141-85,277-112,326-201ZM946.37,1350.99l-18.09-3.9,14.75-1.28,7.36-13.5-4.02,18.67ZM992.32,1325.86l-22.95-2.87,18.23-3.2,7.69-17.61-2.97,23.69ZM1164.59,1209.21l-26.44,11.71,17.46-15.17-3.11-23.82,12.09,27.29ZM1026.37,1328.99l-18.09-3.9,14.75-1.28,7.36-13.5-4.02,18.67ZM1031.05,1297.73l-22.58-4.99,18.45-1.49,9.29-16.82-5.16,23.31ZM1069.77,1304.52l-23.04-2.09,18.11-3.82,7.09-17.87-2.16,23.78ZM1080,1269.89l-28.72-3.29,22.74-4.24,9.38-22.12-3.39,29.65ZM1095.92,1263.54l17.11-7.06,3.71-18.86,2.21,23.77-23.03,2.14ZM1096.2,1227.77l21.28-9.07,4.36-23.63,3.12,29.68-28.75,3.02ZM1132.6,1132.46l25.04,27.65-26.79,24.26,14.78-24.86-13.03-27.06Z"/>
    </g>
  </g>
</svg>